<!-- Generated by IcoMoon.io -->
<svg version="1.1" xmlns="http://www.w3.org/2000/svg" width="512" height="512" viewBox="0 0 512 512">
<title></title>
<g id="icomoon-ignore">
</g>
<path d="M270.933 465.067c123.712 0 224-100.288 224-224 0-123.713-100.288-224-224-224-123.713 0-224 100.287-224 224s100.287 224 224 224zM144.191 166.4c-4.004 18.879-6.531 38.917-7.353 59.733h-59.475c1.557-20.625 6.358-40.653 14.317-59.733h52.511zM397.675 315.733c4.004-18.878 6.531-38.916 7.353-59.733h59.474c-1.557 20.624-6.357 40.653-14.317 59.733h-52.511zM174.783 315.733c-4.487-19.115-7.185-39.132-8.064-59.733h89.281v59.733h-81.217zM256 345.6v87.424c-6.809-1.981-13.554-5.306-20.173-9.973-12.405-8.745-24.273-22.217-34.319-38.96-6.945-11.575-12.951-24.461-17.965-38.493h72.457zM340.358 384.092c-10.046 16.743-21.913 30.216-34.319 38.96-6.618 4.666-13.365 7.991-20.173 9.973v-87.425h72.457c-5.015 14.031-11.021 26.918-17.965 38.493zM285.866 315.733v-59.733h89.28c-0.877 20.601-3.577 40.618-8.063 59.733h-81.217zM450.185 166.4c7.959 19.080 12.76 39.108 14.317 59.733h-59.474c-0.822-20.817-3.349-40.855-7.353-59.733h52.511zM375.147 226.133h-89.28v-59.733h81.217c4.486 19.114 7.185 39.132 8.063 59.733zM285.866 136.534v-87.425c6.808 1.981 13.554 5.307 20.173 9.972 12.406 8.745 24.273 22.218 34.318 38.96 6.945 11.575 12.95 24.462 17.966 38.493h-72.457zM201.508 98.041c10.047-16.742 21.913-30.215 34.319-38.96 6.619-4.666 13.364-7.991 20.173-9.973v87.425h-72.457c5.015-14.031 11.021-26.918 17.965-38.493zM256 166.4v59.733h-89.28c0.877-20.602 3.577-40.619 8.064-59.733h81.216zM136.838 256c0.822 20.817 3.35 40.855 7.353 59.733h-52.511c-7.96-19.080-12.761-39.109-14.317-59.733h59.475zM107.293 345.6h44.754c8.697 27.423 20.709 51.471 35.148 70.666-19.85-9.492-37.827-22.221-53.533-37.927-10.024-10.023-18.835-20.971-26.368-32.74zM408.206 378.339c-15.707 15.707-33.684 28.435-53.533 37.927 14.44-19.196 26.449-43.244 35.147-70.666h44.752c-7.531 11.769-16.344 22.716-26.366 32.74zM434.573 136.534h-44.752c-8.699-27.422-20.709-51.471-35.149-70.668 19.85 9.492 37.827 22.221 53.533 37.928 10.024 10.023 18.837 20.971 26.368 32.74zM133.661 103.794c15.706-15.707 33.684-28.436 53.533-37.928-14.44 19.196-26.45 43.245-35.148 70.668h-44.754c7.532-11.769 16.344-22.716 26.368-32.739z"></path>
</svg>
